<svg width="101" height="104" viewBox="0 0 101 104" fill="none" xmlns="http://www.w3.org/2000/svg">
<path d="M2.06412 70.427C0.96166 69.6572 0.298714 68.64 0.0752091 67.3754C-0.148292 66.1109 0.125623 64.9293 0.897785 63.8296L6.48283 55.8755C6.22389 53.7667 6.29374 51.6715 6.69291 49.5889C7.09207 47.5064 7.95008 45.5274 9.26691 43.652L35.1496 6.79018C38.9185 1.42258 44.1738 -0.762721 50.9154 0.234211C57.6571 1.23114 66.4104 5.48806 77.1755 13.0049C88.3296 20.7935 95.4661 27.5596 98.5849 33.3033C101.703 39.0468 101.31 44.6995 97.4052 50.2611L71.5225 87.1229C70.2056 88.9983 68.6347 90.4795 66.8084 91.5655C64.9827 92.652 63.0322 93.434 60.9566 93.9127L55.3716 101.867C54.5994 102.967 53.5797 103.627 52.3117 103.85C51.0436 104.073 49.8584 103.8 48.7559 103.03L44.865 100.313C43.7625 99.5435 43.0995 98.5263 42.876 97.2618C42.6526 95.9972 42.9265 94.8157 43.6986 93.716L46.4229 89.8362L15.295 68.1007L12.5708 71.9805C11.7986 73.0802 10.7789 73.7409 9.51084 73.964C8.24281 74.1871 7.05759 73.9137 5.95513 73.1439L2.06412 70.427ZM32.0336 27.7448L78.7254 60.3481L86.8989 48.7076L40.2071 16.1043L32.0336 27.7448ZM25.4141 57.8184C27.0353 58.9504 28.8107 59.3468 30.7402 59.0075C32.6697 58.6682 34.2021 57.6903 35.3373 56.0735C36.4725 54.4567 36.87 52.6863 36.5298 50.7621C36.1895 48.838 35.2088 47.3099 33.5876 46.1778C31.9663 45.0457 30.191 44.6494 28.2614 44.9887C26.3319 45.3279 24.7996 46.3059 23.6643 47.9227C22.5291 49.5394 22.1317 51.3099 22.4719 53.234C22.8121 55.1582 23.7928 56.6863 25.4141 57.8184ZM52.651 76.837C54.2722 77.969 56.0476 78.3654 57.9771 78.0261C59.9067 77.6868 61.439 76.7089 62.5742 75.0921C63.7094 73.4753 64.1069 71.7049 63.7667 69.7807C63.4264 67.8566 62.4457 66.3284 60.8245 65.1964C59.2032 64.0643 57.4278 63.6679 55.4983 64.0072C53.5688 64.3464 52.0365 65.3245 50.9013 66.9413C49.766 68.558 49.3685 70.3284 49.7087 72.2526C50.049 74.1768 51.0297 75.7049 52.651 76.837ZM47.4071 9.56648L90.9861 39.9962C90.7852 38.2176 89.3409 35.8357 86.6531 32.8505C83.9652 29.8653 79.0545 25.8823 71.921 20.9012C64.9821 16.056 59.6238 12.9168 55.8462 11.4837C52.0685 10.0506 49.2555 9.41153 47.4071 9.56648ZM20.7441 60.3401L51.872 82.0756C54.012 83.5699 56.3775 84.0893 58.9686 83.6337C61.5597 83.1781 63.6045 81.8832 65.1029 79.7491L73.2764 68.1085L26.5846 35.5052L18.4111 47.1458C16.9126 49.2799 16.3918 51.6389 16.8487 54.2228C17.3056 56.8067 18.604 58.8457 20.7441 60.3401Z" fill="#C8CCE1"/>
</svg>
